<?xml version="1.0" encoding="UTF-8"?>
<svg width="385px" height="296px" viewBox="0 0 385 296" version="1.1" xmlns="http://www.w3.org/2000/svg" xmlns:xlink="http://www.w3.org/1999/xlink">
    <!-- Generator: Sketch 43.2 (39069) - http://www.bohemiancoding.com/sketch -->
    <title>Combined Shape</title>
    <desc>Created with Sketch.</desc>
    <defs></defs>
    <g id="Landing" stroke="none" stroke-width="1" fill="none" fill-rule="evenodd">
        <g id="Artboard" transform="translate(-367.000000, -332.000000)" fill="#E6E7EA">
            <path d="M367,335.009478 C367,333.347389 368.347855,332 370.005505,332 L583.994495,332 C585.65439,332 587,333.336631 587,335.009478 L587,344.990522 C587,346.652611 585.652145,348 583.994495,348 L370.005505,348 C368.34561,348 367,346.663369 367,344.990522 L367,335.009478 Z M367,375.009478 C367,373.347389 368.347855,372 370.005505,372 L583.994495,372 C585.65439,372 587,373.336631 587,375.009478 L587,384.990522 C587,386.652611 585.652145,388 583.994495,388 L370.005505,388 C368.34561,388 367,386.663369 367,384.990522 L367,375.009478 Z M367,355.009478 C367,353.347389 368.342395,352 370.001915,352 L643.998085,352 C645.655997,352 647,353.336631 647,355.009478 L647,364.990522 C647,366.652611 645.657605,368 643.998085,368 L370.001915,368 C368.344003,368 367,366.663369 367,364.990522 L367,355.009478 Z M367,515.009478 C367,513.347389 368.347855,512 370.005505,512 L583.994495,512 C585.65439,512 587,513.336631 587,515.009478 L587,524.990522 C587,526.652611 585.652145,528 583.994495,528 L370.005505,528 C368.34561,528 367,526.663369 367,524.990522 L367,515.009478 Z M367,555.009478 C367,553.347389 368.347855,552 370.005505,552 L583.994495,552 C585.65439,552 587,553.336631 587,555.009478 L587,564.990522 C587,566.652611 585.652145,568 583.994495,568 L370.005505,568 C368.34561,568 367,566.663369 367,564.990522 L367,555.009478 Z M367,535.009478 C367,533.347389 368.342395,532 370.001915,532 L643.998085,532 C645.655997,532 647,533.336631 647,535.009478 L647,544.990522 C647,546.652611 645.657605,548 643.998085,548 L370.001915,548 C368.344003,548 367,546.663369 367,544.990522 L367,535.009478 Z M367,395.009478 C367,393.347389 368.337528,392 369.993493,392 L664.006507,392 C665.659767,392 667,393.336631 667,395.009478 L667,404.990522 C667,406.652611 665.662472,408 664.006507,408 L369.993493,408 C368.340233,408 367,406.663369 367,404.990522 L367,395.009478 Z M367,455.009478 C367,453.347389 368.336631,452 370.009478,452 L379.990522,452 C381.652611,452 383,453.336631 383,455.009478 L383,464.990522 C383,466.652611 381.663369,468 379.990522,468 L370.009478,468 C368.347389,468 367,466.663369 367,464.990522 L367,455.009478 Z M367,475.009478 C367,473.347389 368.336631,472 370.009478,472 L379.990522,472 C381.652611,472 383,473.336631 383,475.009478 L383,484.990522 C383,486.652611 381.663369,488 379.990522,488 L370.009478,488 C368.347389,488 367,486.663369 367,484.990522 L367,475.009478 Z M367,495.009478 C367,493.347389 368.336631,492 370.009478,492 L379.990522,492 C381.652611,492 383,493.336631 383,495.009478 L383,504.990522 C383,506.652611 381.663369,508 379.990522,508 L370.009478,508 C368.347389,508 367,506.663369 367,504.990522 L367,495.009478 Z M367,575.009478 C367,573.347389 368.336631,572 370.009478,572 L379.990522,572 C381.652611,572 383,573.336631 383,575.009478 L383,584.990522 C383,586.652611 381.663369,588 379.990522,588 L370.009478,588 C368.347389,588 367,586.663369 367,584.990522 L367,575.009478 Z M367,595.009478 C367,593.347389 368.336631,592 370.009478,592 L379.990522,592 C381.652611,592 383,593.336631 383,595.009478 L383,604.990522 C383,606.652611 381.663369,608 379.990522,608 L370.009478,608 C368.347389,608 367,606.663369 367,604.990522 L367,595.009478 Z M367,615.009478 C367,613.347389 368.336631,612 370.009478,612 L379.990522,612 C381.652611,612 383,613.336631 383,615.009478 L383,624.990522 C383,626.652611 381.663369,628 379.990522,628 L370.009478,628 C368.347389,628 367,626.663369 367,624.990522 L367,615.009478 Z M367,435.009478 C367,433.347389 368.346445,432 370.001213,432 L665.998787,432 C667.656311,432 669,433.336631 669,435.009478 L669,444.990522 C669,446.652611 667.653555,448 665.998787,448 L370.001213,448 C368.343689,448 367,446.663369 367,444.990522 L367,435.009478 Z M367,415.009478 C367,413.347389 368.337265,412 370.001189,412 L748.998811,412 C750.656322,412 752,413.336631 752,415.009478 L752,424.990522 C752,426.652611 750.662735,428 748.998811,428 L370.001189,428 C368.343678,428 367,426.663369 367,424.990522 L367,415.009478 Z" id="Combined-Shape"></path>
        </g>
    </g>
</svg>