<svg xmlns="http://www.w3.org/2000/svg" width="387" height="129" viewBox="0 0 387 129">
  <defs>
    <linearGradient id="logo2-a" x1="56.818%" x2="87.454%" y1="34.176%" y2="100%">
      <stop offset="0%" stop-color="#5371FD"/>
      <stop offset="100%" stop-color="#00C3FD"/>
    </linearGradient>
  </defs>
  <path fill="url(#logo2-a)" d="M305.13845,73.796926 C300.018423,79.786361 294.444095,82.938337 287.790292,82.938337 C281.069257,82.938337 276.390367,79.360259 274.372814,73.586706 C268.686922,79.746066 262.617391,82.938337 256.234906,82.938337 C247.645579,82.938337 242.187202,77.147552 240.589666,68.347078 C236.669942,71.123863 232.321703,72.686841 227.722933,72.686841 C223.69995,72.686841 220.042328,71.608157 217.068793,69.659725 C210.157865,78.752033 204.462514,82.938337 197.128625,82.938337 C190.765205,82.938337 186.515535,80.107388 184.252361,74.992271 C179.454597,80.122719 174.078686,82.938337 167.975934,82.938337 C161.81705,82.938337 157.372985,79.933772 155.120195,74.988529 C150.254859,80.17692 144.919869,82.938337 138.823242,82.938337 C130.815485,82.938337 125.395193,77.44784 124.427619,69.80254 C121.098221,71.63998 117.552853,72.686841 113.995401,72.686841 C110.096851,72.686841 106.385955,71.607273 103.45293,69.74078 C96.080592,78.72878 87.772092,83.726 78.758387,83.414729 C74.339671,83.182165 70.857979,82.065955 68.310599,79.9729 C59.713497,103.863233 56.109793,113.954764 54.851937,117.728333 C53.966589,120.384376 51.553005,122.022165 48.802294,122.022165 C44.342865,122.022165 41.224629,117.552692 42.774089,113.526411 L53.981172,82.206741 C52.276694,82.692182 50.501555,82.938337 48.642115,82.938337 C41.92108,82.938337 37.24219,79.360259 35.224637,73.586706 C29.538745,79.746066 23.469215,82.938337 17.086729,82.938337 C6.753816,82.938337 0.952,74.557937 0.952,62.638937 C0.952,51.507149 5.19785,36.401045 11.801361,24.116875 C19.408994,9.964787 29.065229,1.173375 39.351697,1.173375 C45.011467,1.173375 49.664007,2.910873 53.088097,6.34768 C53.413905,5.506536 53.762043,4.609436 53.842108,4.401442 C54.771365,1.923424 57.183949,0.372477 59.854688,0.372477 C64.450369,0.372477 67.299532,4.977658 65.692204,8.950779 L57.714978,30.328812 C57.386626,31.250023 54.379047,39.641791 53.557576,41.962996 C52.07796,46.143903 50.976606,49.366968 50.057979,52.239929 C47.899247,58.991255 46.836726,63.618217 46.836726,66.483248 C46.836726,69.765948 47.158002,70.210793 48.642115,70.210793 C53.503964,70.210793 58.805271,63.833008 64.64426,51.880104 C65.017901,51.115228 65.362849,50.397225 65.715907,49.647484 C71.123153,34.785512 80.212976,9.825522 81.072644,7.605034 L82.017139,5.086382 C82.918764,2.465971 85.316526,0.853016 88.046302,0.853016 C90.67925,0.853016 92.844661,2.41107 93.853515,4.527835 C97.532735,2.126807 101.393709,0.853016 105.505881,0.853016 C116.663972,0.853016 121.960969,9.227317 121.960969,22.113493 C121.960969,32.289774 116.580672,48.871227 110.584211,59.080013 C111.641427,59.652349 112.863298,59.959297 114.155581,59.959297 C120.161967,59.959297 127.048948,52.002909 129.691665,42.753399 L129.892956,42.235922 C129.91237,42.197093 129.932075,42.158498 129.952069,42.120139 C131.101619,38.571406 132.417026,34.732828 133.890262,30.60681 C134.761915,28.165614 135.685783,25.633345 136.67117,22.979528 C138.589646,17.812743 139.943899,14.271419 143.371378,5.391 C144.263353,2.820657 146.629635,1.173375 149.234918,1.173375 C153.559217,1.173375 156.887891,4.905525 155.265372,9.502641 C137.141692,60.510526 137.017854,60.890419 137.017854,66.483248 C137.017854,69.673713 137.398692,70.210793 138.823242,70.210793 C144.15817,70.210793 149.562061,63.264212 156.19407,49.166744 C157.017768,47.415833 157.594688,46.153609 158.981012,43.083167 C162.008811,34.005443 166.47744,21.791431 172.855568,4.881981 C173.769609,2.444537 176.156891,0.853016 178.707968,0.853016 C183.433883,0.853016 186.307395,5.26591 184.731551,9.361597 C168.21298,54.871944 166.170545,61.134411 166.170545,66.483248 C166.170545,69.765948 166.491821,70.210793 167.975934,70.210793 C174.094752,70.210793 180.210286,62.418419 188.256369,42.303211 C189.421542,39.390278 191.687308,33.248756 194.731492,24.806712 C194.84194,24.500378 194.84194,24.500378 194.952363,24.193949 C196.288542,20.485493 197.702943,16.533718 199.164957,12.430142 C199.715526,10.884806 200.248449,9.386424 200.783139,7.881027 C201.127479,6.911555 201.41704,6.095565 201.84808,4.881981 C202.762121,2.444537 205.149403,0.853016 207.70048,0.853016 C212.268746,0.853016 215.456624,5.274912 213.871162,9.396939 C200.430841,45.024458 195.323236,60.227795 195.323236,66.483248 C195.323236,69.771146 195.669881,70.210793 197.128625,70.210793 C200.242779,70.210793 202.179291,68.443843 209.033064,58.766479 C207.690234,53.96364 207.871917,48.235603 209.312031,43.196058 C210.168251,40.341991 212.434733,38.495227 215.389102,38.495227 C216.999991,38.495227 218.459706,39.070889 219.585746,40.012624 C225.731317,28.077564 234.025063,11.628881 237.509133,4.323574 C238.786214,2.072076 241.057902,0.692836 243.420536,0.692836 C246.857315,0.692836 249.624129,3.650465 249.624129,7.056608 C249.624129,7.999165 249.485382,8.600399 249.149819,9.607088 L248.998922,9.976035 C240.575048,27.206688 229.477816,49.047531 223.992603,58.96139 C225.046045,59.572926 226.397571,59.959297 227.722933,59.959297 C233.583969,59.959297 237.984154,55.077625 243.274819,43.019082 C245.149544,36.569395 247.777543,30.017574 250.949538,24.116875 C258.557171,9.964787 268.213406,1.173375 278.499874,1.173375 C284.159644,1.173375 288.812184,2.910873 292.236274,6.34768 C292.562082,5.506536 292.91022,4.609436 292.990285,4.401442 C293.919542,1.923424 296.332126,0.372477 299.002865,0.372477 C303.598546,0.372477 306.447709,4.977658 304.84038,8.950779 L296.863155,30.328812 C296.534803,31.250023 293.527223,39.641791 292.705753,41.962996 C291.226137,46.143903 290.124782,49.366968 289.206155,52.239929 C287.047424,58.991255 285.984903,63.618217 285.984903,66.483248 C285.984903,69.765948 286.306179,70.210793 287.790292,70.210793 C292.652141,70.210793 297.953448,63.833008 303.792437,51.880104 C304.859664,49.6954 305.692795,47.893094 307.149483,44.641394 C307.638058,43.304623 308.189122,41.83054 308.824656,40.155629 C309.588273,38.143165 312.596263,30.318353 313.006696,29.245538 L321.982797,4.881981 C322.896838,2.444537 325.28412,0.853016 327.835197,0.853016 C332.561112,0.853016 335.434624,5.26591 333.859792,9.358803 L325.048291,33.710577 C322.963405,39.444012 318.177844,52.050885 317.775085,53.162848 C316.189523,57.540359 315.588513,59.851294 315.476945,62.045409 C315.464261,62.294856 315.457954,62.545323 315.457954,62.799117 C315.457954,67.860795 317.203002,70.210793 323.029809,70.210793 C329.028363,70.210793 338.72025,55.870307 345.33196,36.862413 C346.525046,33.283154 346.797204,32.510814 348.054602,29.182407 C348.098779,29.065468 353.669086,14.429005 357.222314,5.04216 C358.132437,2.615167 360.51134,0.853016 363.074714,0.853016 C367.168545,0.853016 370.702094,5.194234 369.284536,9.446908 C364.183387,22.529048 361.338358,29.948438 357.255815,41.046874 L344.450175,77.542586 L344.177324,78.342952 C357.142988,72.006628 366.59591,60.248408 374.087907,42.567295 C375.30072,40.128422 377.428409,38.655407 379.893575,38.655407 C380.730966,38.655407 381.250889,38.785388 382.283875,39.129716 L382.676832,39.292485 C384.944511,40.426324 386.417526,42.554013 386.417526,45.019179 C386.417526,45.85657 386.287546,46.376493 385.943217,47.409479 C375.25,72.614724 361.157867,87.050031 338.803573,94.061993 C330.810196,116.120304 320.251149,127.92985 307.382199,128.108574 C296.139014,128.29596 288.474423,120.74245 288.474423,109.571567 C288.474423,97.236762 298.315169,89.246798 318.070808,85.625714 C322.089142,84.982781 325.59146,84.309776 328.896786,83.509434 L329.508026,81.749063 C327.433718,82.536829 325.275544,82.938337 323.029809,82.938337 C314.219634,82.938337 308.257766,79.43713 305.13845,73.796926 Z M39.416899,13.900211 C34.141446,14.014894 27.773068,20.701691 22.295868,31.718332 C17.295693,41.775503 13.83266,53.968729 13.679544,61.51768 C13.679544,67.899823 14.767059,70.210793 16.926549,70.210793 C21.481598,70.210793 26.296557,65.914631 31.226793,57.621933 C35.051677,51.188447 37.875478,44.731 42.949894,31.792157 L46.570701,22.136673 C46.15996,16.815428 43.397751,13.900895 39.416899,13.900211 Z M101.66157,38.495227 C103.039471,38.495227 104.288874,38.915935 105.313167,39.626517 C107.723787,32.942325 109.073245,26.718254 109.073245,21.793134 C109.073245,15.74254 108.014316,13.58056 105.82624,13.58056 C101.20191,13.58056 96.272573,17.97129 91.220012,26.399126 C87.317393,32.908823 84.396697,39.510099 79.321199,52.323847 C78.91025,53.47204 77.747582,56.641253 77.539606,57.22639 C77.020885,58.685797 76.705908,59.693937 76.479985,60.648078 C76.140601,62.081397 75.989417,63.483172 75.989417,65.361991 C75.989417,69.662188 76.653442,70.60289 79.141445,70.69204 C84.482205,70.808144 90.22873,66.693581 95.427487,59.201082 C93.881999,54.439649 94.062912,48.587311 95.544775,43.334778 C96.191362,40.434867 98.791785,38.495227 101.66157,38.495227 Z M278.565076,13.900211 C273.289623,14.014894 266.921245,20.701691 261.444045,31.718332 C256.44387,41.775503 252.980837,53.968729 252.827721,61.51768 C252.827721,67.899823 253.915236,70.210793 256.074726,70.210793 C260.629775,70.210793 265.444734,65.914631 270.37497,57.621933 C274.199853,51.188447 277.023654,44.731 282.098071,31.792157 L285.718878,22.136673 C285.308137,16.815428 282.545927,13.900895 278.565076,13.900211 Z M307.244008,115.382743 C313.514465,115.266446 319.335815,109.335837 323.996326,97.591626 C322.642057,97.864049 321.466475,98.083573 320.34024,98.271216 C306.968431,100.596748 301.762802,103.958069 301.20282,109.541662 C301.252848,113.344125 303.500017,115.49286 307.244008,115.382743 Z"/>
</svg>
