<svg xmlns="http://www.w3.org/2000/svg" width="660" height="190" viewBox="0 0 660 190">
  <path fill="#FFF" fill-rule="evenodd" d="M134.713376,160 L180,160 L90,0 L0,160 L45.2866242,160 L90,80.5095541 L134.713376,160 Z M287,115.43395 C287,122.202628 286.161563,128.360923 284.484663,133.90902 C282.807763,139.457117 280.348346,143.228409 277.106339,147.223039 C273.864333,151.217669 269.839833,154.324556 265.03272,156.543795 C260.225607,158.763034 254.69192,159.321297 248.431493,159.321297 C244.9659,159.321297 241.723941,158.997779 238.705521,158.332007 C235.687101,157.666235 232.780518,157.26505 229.985685,156.044469 L229.985685,190 L205,190 L205,70.2958985 C207.235867,69.6301269 238.03475,70.2958985 241.05317,70.2958985 C248.319736,70.2958985 254.803652,70.744241 260.505112,72.9079989 C266.206572,75.0717567 271.013614,78.1231642 274.92638,82.0623131 C278.839147,86.0014619 281.829574,90.8004938 283.897751,96.4595527 C285.965927,102.118612 287,108.443347 287,115.43395 Z M262,114.646246 C262,107.133812 260.241152,101.118511 256.723404,96.6001634 C253.205656,92.0818154 247.98585,90.0880589 241.06383,90.0880589 C238.794315,90.0880589 236.695045,89.904331 234.765957,90.0676448 C232.83687,90.2309586 231.248233,89.8703072 230,90.0880589 L230,134.570428 C231.58866,135.55031 233.659562,136.366867 236.212766,137.020122 C238.76597,137.673377 241.347505,138 243.957447,138 C255.985876,138 262,130.215493 262,114.646246 Z M329.998587,160 L305,160 L305,70 L329.998587,70 L329.998587,160 Z M317.5,61 C308.939586,61 302,54.0604136 302,45.5 C302,36.9395864 308.939586,30 317.5,30 C326.060414,30 333,36.9395864 333,45.5 C333,54.0604136 326.060414,61 317.5,61 Z M409.659686,112.32866 C407.390914,120.997905 397.181515,151.330755 394.34555,160 L374.60733,160 C372.565435,155.209102 347.495649,78.8973829 345,70 L371.71466,70 C372.622169,74.1064844 384.476433,119.741659 385.837696,124.532557 C387.312398,119.513521 400.244324,74.1064844 401.151832,70 L419.528796,70 C420.436305,74.1064844 432.857759,119.513521 434.332461,124.532557 C435.693724,119.741659 447.718146,74.1064844 448.625654,70 L475,70 C472.504351,78.8973829 447.264408,155.209102 445.222513,160 L425.484293,160 C422.648328,151.330755 411.928458,120.997905 409.659686,112.32866 Z M519.580574,68 C526.962509,68 533.11403,68.8414229 538.03532,70.524294 C542.95661,72.207165 546.899176,74.619244 549.863135,77.7606033 C552.827094,80.9019626 554.924203,84.7164131 556.154525,89.2040692 C557.384848,93.6917254 558,98.6841679 558,104.181547 L558,156.999242 C554.42088,157.784582 528.975763,159.999997 519.916115,159.999997 C514.211892,159.999997 509.039022,160.009468 504.397351,158.999745 C499.75568,157.990023 495.757191,156.546634 492.401766,154.24671 C489.046341,151.946786 486.473887,148.945711 484.684327,145.243395 C482.894767,141.541079 482,136.997395 482,131.612208 C482,126.451403 483.034574,122.076004 485.103753,118.485879 C487.172932,114.895754 489.941116,112.034916 493.408389,109.90328 C496.875661,107.771643 499.699779,106.369268 505.320088,105.275407 C510.940397,104.181547 513.917871,104.181547 519.245033,103.844974 C523.386032,103.583344 534.00883,103.003543 534.00883,103.003543 C534.00883,98.7402695 532.722603,95.318483 530.15011,92.7380808 C527.577618,90.1576785 523.103785,88.8674967 516.728477,88.8674967 C512.478272,88.8674967 508.284053,89.1760184 504.145695,89.7930711 C500.007338,90.4101239 496.428271,91.2795942 493.408389,92.4015082 L490.220751,72.2071566 C491.674768,71.758391 493.492263,71.2815847 495.673289,70.7767234 C497.854316,70.271862 500.231039,69.8231032 502.803532,69.4304332 C505.376025,69.0377633 508.088286,68.7011942 510.940397,68.4207157 C513.792509,68.1402372 516.672539,68 519.580574,68 Z M521.197178,141.377497 C523.664629,141.377497 532.300645,141.224326 533.646527,141 L533.646527,120 C532.5,120 520.019537,120.5 516.9072,121.104101 C513.794863,121.708202 513.009776,121.917276 511.43958,122.702419 C509.869384,123.487561 508.635678,124.553095 507.738423,125.899054 C506.841168,127.245012 506.392547,128.927435 506.392547,130.946372 C506.392547,134.872084 507.71037,137.592001 510.346057,139.106204 C512.981743,140.620407 516.598747,141.377497 521.197178,141.377497 Z M660,70 C654.924787,87.1027578 649.624088,103.136353 644.097744,118.101266 C638.571401,133.066179 632.537627,147.580802 625.996241,161.64557 C623.627808,166.708886 621.25941,171.012641 618.890977,174.556962 C616.522545,178.101284 613.928586,181.026711 611.109023,183.333333 C608.28946,185.639955 605.103401,187.327702 601.550752,188.396624 C597.998103,189.465547 593.853407,190 589.116541,190 C585.169153,190 581.531972,189.634322 578.204887,188.902954 C574.877803,188.171586 572.142868,187.355841 570,186.455696 L574.398496,166.371308 C576.992494,167.271453 579.304501,167.890294 581.334586,168.227848 C583.364672,168.565403 585.507508,168.734177 587.763158,168.734177 C592.274459,168.734177 595.742469,167.524625 598.167293,165.105485 C600.592117,162.686345 602.650367,159.338981 604.342105,155.063291 C598.590197,143.811477 592.838375,131.181505 587.086466,117.172996 C581.334558,103.164487 575.921078,87.4403122 570.845865,70 C570.845865,70 597.575188,70.4219409 597.575188,70 C601.550752,95.1476793 616.522556,128.565401 616.522556,128.565401 C616.522556,128.565401 629.832646,95.1476793 633.947368,70 C633.947368,70 660,70 660,70 Z"/>
</svg>
