<svg xmlns="http://www.w3.org/2000/svg" width="42" height="43" viewBox="0 0 42 43">
  <g fill="none" fill-rule="evenodd">
    <path fill="#B9BEC8" d="M21,0 C33.7377717,0 42,8.26222826 42,21 L42,21 C42,33.7377717 33.7377717,42 21,42 L21,42 C8.26222826,42 0,33.7377717 0,21 L0,21 C0,8.26222826 8.26222826,0 21,0 Z"/>
    <path fill="#FFF" d="M15.7949599,40.9242313 C15.7949599,40.4140168 15.7769115,39.0591724 15.7665981,37.262847 C9.92535069,38.5634976 8.69290033,34.3760371 8.69290033,34.3760371 C7.73762239,31.8884106 6.36078455,31.2261891 6.36078455,31.2261891 C4.4540962,29.8911717 6.50517204,29.9176077 6.50517204,29.9176077 C8.61297155,30.0696146 9.72166119,32.1369089 9.72166119,32.1369089 C11.594831,35.4268676 14.6372817,34.4764938 15.8336352,33.9253035 C16.0244329,32.5347705 16.5671752,31.5857186 17.1666411,31.0477462 C12.5036987,30.5044866 7.60096995,28.6566111 7.60096995,20.4059392 C7.60096995,18.0557799 8.41959544,16.1325617 9.76291476,14.628354 C9.54633353,14.0837726 8.82568526,11.893551 9.9691826,8.93007677 C9.9691826,8.93007677 11.7314835,8.35112863 15.743393,11.1374818 C17.41803,10.6589904 19.2151386,10.4210665 21.0006446,10.4118139 C22.7848614,10.4210665 24.5806808,10.6589904 26.2578962,11.1374818 C30.2672274,8.35112863 32.0269499,8.93007677 32.0269499,8.93007677 C33.1730256,11.893551 32.4523773,14.0837726 32.2370852,14.628354 C33.5829829,16.1325617 34.3951625,18.0557799 34.3951625,20.4059392 C34.3951625,28.6777599 29.4846987,30.4978776 24.8075754,31.0305628 C25.5604531,31.6954279 26.2321127,33.0092965 26.2321127,35.0184316 C26.2321127,37.8959889 26.2063292,40.2183905 26.2063292,40.9242313 C26.2063292,41.5005359 15.7949599,41.4952487 15.7949599,40.9242313 Z" transform="translate(0 1)"/>
  </g>
</svg>
